<svg id="Layer_1" height="512" viewBox="0 0 128 128" width="512" xmlns="http://www.w3.org/2000/svg" data-name="Layer 1"><path d="m121.5 16.442h-35.85v-9.942a1.75 1.75 0 0 0 -1.75-1.75h-39.8a1.75 1.75 0 0 0 -1.75 1.75v9.942h-35.85a1.75 1.75 0 0 0 -1.75 1.75v9a1.749 1.749 0 0 0 1.75 1.75h4.572l11.381 92.771a1.752 1.752 0 0 0 1.737 1.537h79.62a1.752 1.752 0 0 0 1.737-1.537l11.381-92.771h4.572a1.749 1.749 0 0 0 1.75-1.75v-9a1.75 1.75 0 0 0 -1.75-1.75zm-75.65-8.192h36.3v8.192h-36.3zm56.411 111.5h-76.522l-11.139-90.808h98.8zm17.489-94.308h-111.5v-5.5h111.5z"/><path d="m80.9 99.692h6a1.749 1.749 0 0 0 1.75-1.75v-50.192a1.75 1.75 0 0 0 -1.75-1.75h-6a1.75 1.75 0 0 0 -1.75 1.75v50.192a1.749 1.749 0 0 0 1.75 1.75zm1.754-50.192h2.5v46.692h-2.5z"/><path d="m61 99.692h6a1.749 1.749 0 0 0 1.75-1.75v-50.192a1.75 1.75 0 0 0 -1.75-1.75h-6a1.75 1.75 0 0 0 -1.75 1.75v50.192a1.749 1.749 0 0 0 1.75 1.75zm1.75-50.192h2.5v46.692h-2.5z"/><path d="m41.1 99.692h6a1.75 1.75 0 0 0 1.75-1.75v-50.192a1.751 1.751 0 0 0 -1.75-1.75h-6a1.75 1.75 0 0 0 -1.75 1.75v50.192a1.749 1.749 0 0 0 1.75 1.75zm1.746-50.192h2.5v46.692h-2.5z"/></svg>